<?xml version="1.0" encoding="utf-8" ?>
<svg baseProfile="full" height="200px" version="1.1" width="300px" xmlns="http://www.w3.org/2000/svg" xmlns:ev="http://www.w3.org/2001/xml-events" xmlns:xlink="http://www.w3.org/1999/xlink"><defs /><g id="crab"><ellipse cx="150" cy="100" fill="#f04e23" id="body" rx="40" ry="30" /><g id="eye-left" transform="translate(130, 65)"><circle cx="0" cy="0" fill="white" r="5" /><circle cx="0" cy="0" fill="black" r="2" /></g><g id="eye-right" transform="translate(170, 65)"><circle cx="0" cy="0" fill="white" r="5" /><circle cx="0" cy="0" fill="black" r="2" /></g><g id="claw-left" transform="translate(90, 80)"><rect fill="#f04e23" height="10" id="claw-left-arm" width="20" x="0" y="0" /><rect fill="#f04e23" height="10" id="claw-left-pincer" width="10" x="15" y="-5" /></g><g id="claw-right" transform="translate(190, 80)"><rect fill="#f04e23" height="10" id="claw-right-arm" width="20" x="0" y="0" /><rect fill="#f04e23" height="10" id="claw-right-pincer" width="10" x="15" y="-5" /></g><g id="leg-left-1" transform="translate(110,120)"><g id="leg-left-1-upper"><rect fill="#f04e23" height="5" width="15" x="0" y="0" /></g><g id="leg-left-1-lower" transform="translate(15, 0)"><rect fill="#f04e23" height="5" width="15" x="0" y="0" /></g></g><g id="leg-left-2" transform="translate(115,120)"><g id="leg-left-2-upper"><rect fill="#f04e23" height="5" width="15" x="0" y="0" /></g><g id="leg-left-2-lower" transform="translate(15, 0)"><rect fill="#f04e23" height="5" width="15" x="0" y="0" /></g></g><g id="leg-left-3" transform="translate(120,120)"><g id="leg-left-3-upper"><rect fill="#f04e23" height="5" width="15" x="0" y="0" /></g><g id="leg-left-3-lower" transform="translate(15, 0)"><rect fill="#f04e23" height="5" width="15" x="0" y="0" /></g></g><g id="leg-right-1" transform="translate(170,120)"><g id="leg-right-1-upper"><rect fill="#f04e23" height="5" width="15" x="0" y="0" /></g><g id="leg-right-1-lower" transform="translate(15, 0)"><rect fill="#f04e23" height="5" width="15" x="0" y="0" /></g></g><g id="leg-right-2" transform="translate(175,120)"><g id="leg-right-2-upper"><rect fill="#f04e23" height="5" width="15" x="0" y="0" /></g><g id="leg-right-2-lower" transform="translate(15, 0)"><rect fill="#f04e23" height="5" width="15" x="0" y="0" /></g></g><g id="leg-right-3" transform="translate(180,120)"><g id="leg-right-3-upper"><rect fill="#f04e23" height="5" width="15" x="0" y="0" /></g><g id="leg-right-3-lower" transform="translate(15, 0)"><rect fill="#f04e23" height="5" width="15" x="0" y="0" /></g></g></g></svg>