<svg
  baseProfile="full"
  width="240px"
  height="150px"
  version="1.1"
  xmlns="http://www.w3.org/2000/svg"
  xmlns:ev="http://www.w3.org/2001/xml-events"
  viewBox="-68 -45 135 80"
>
  <g id="crab">
    <g transform="translate(30, -45)">
        
      <g>
        <animateTransform
          attributeName="transform"
          type="rotate"
          values="0 0 30; 20 0 30; 0 0 30"
          dur="0.8s"
          repeatCount="indefinite"
        />
        <path d="M 0 40 A 15 15 0 0 0 10 28" stroke="#f04e23" stroke-width="6" fill="none" />
        <path d="M 7 30 A 10 10 0 0 0 12 30" stroke="#c4371b" stroke-width="1.5" />
        <path d="M 3 7 A 10 8 90 1 0 12 27 A 4 4 0 0 0 14 25 A 25 25 0 0 1 6 7 A 2 2 0 0 0 3 7 Z " fill="#f04e23" />
        <path d="M 12 2 A 12 10 45 1 1 3 28 A 5 5 0 0 1 0 26 A 30 30 0 0 0 9 2 A 2 2 0 0 1 12 2 Z" fill="#f04e23" />
        <path d="M 1 26 A 50 50 0 0 0 8 15" stroke="#da3f1f" stroke-width="1" />
      </g>
    </g>

    <g transform="translate(-30, -45) scale(-1, 1)">
      <path d="M 0 40 A 15 15 0 0 0 10 28" stroke="#f04e23" stroke-width="6" fill="none" />
      <path d="M 7 30 A 10 10 0 0 0 12 30" stroke="#c4371b" stroke-width="1.5" />
      <path d="M 3 7 A 10 8 90 1 0 12 27 A 4 4 0 0 0 14 25 A 25 25 0 0 1 6 7 A 2 2 0 0 0 3 7 Z " fill="#f04e23" />
      <path d="M 12 2 A 12 10 45 1 1 3 28 A 5 5 0 0 1 0 26 A 30 30 0 0 0 9 2 A 2 2 0 0 1 12 2 Z" fill="#f04e23" />
      <path d="M 1 26 A 50 50 0 0 0 8 15" stroke="#da3f1f" stroke-width="1" />
    </g>
    
    <g transform="translate(30, 5)">
      <g transform="translate(16, -3)">
        <g transform="translate(11, 8)">
          <path d="M 0 0 L 3 -1 Q 7 4 7 8 Q 7 11 5.5 9 Q 4 4 0 0 Z" fill="#f04e23" />
        </g>
        <path d="M 0 0 L 12 8" stroke-width="5" stroke="#f04e23" stroke-linecap="round" fill="none" />
        <path d="M 14 7 A 2 2 0 0 1 12 10" stroke-width="1" stroke="#da3f1f" stroke-linecap="round" fill="none" />
      </g>
      
      <path d="M 0 0 L 16 -3" stroke-width="6" stroke="#f04e23" stroke-linecap="round" fill="none" />
      <path d="M 18 -5 A 5 5 0 0 1 16.5 -0.5" stroke-width="1" stroke="#da3f1f" stroke-linecap="round" fill="none" />
    </g>

    <g transform="translate(25, 10) rotate(10) scale(0.8)">
      <g transform="translate(16, -3)">
        <g transform="translate(11, 8)">
          <path d="M 0 0 L 3 -1 Q 7 4 7 8 Q 7 11 5.5 9 Q 4 4 0 0 Z" fill="#f04e23" />
        </g>
        <path d="M 0 0 L 12 8" stroke-width="5" stroke="#f04e23" stroke-linecap="round" fill="none" />
        <path d="M 14 7 A 2 2 0 0 1 12 10" stroke-width="1" stroke="#da3f1f" stroke-linecap="round" fill="none" />
      </g>
      
      <path d="M 0 0 L 16 -3" stroke-width="6" stroke="#f04e23" stroke-linecap="round" fill="none" />
      <path d="M 18 -5 A 5 5 0 0 1 16.5 -0.5" stroke-width="1" stroke="#da3f1f" stroke-linecap="round" fill="none" />      
    </g>


    <g transform="translate(20, 15) rotate(20) scale(0.6)">
      <g transform="translate(16, -3)">
        <g transform="translate(11, 8)">
          <path d="M 0 0 L 3 -1 Q 7 4 7 8 Q 7 11 5.5 9 Q 4 4 0 0 Z" fill="#f04e23" />
        </g>
        <path d="M 0 0 L 12 8" stroke-width="5" stroke="#f04e23" stroke-linecap="round" fill="none" />
        <path d="M 14 7 A 2 2 0 0 1 12 10" stroke-width="1" stroke="#da3f1f" stroke-linecap="round" fill="none" />
      </g>
      
      <path d="M 0 0 L 16 -3" stroke-width="6" stroke="#f04e23" stroke-linecap="round" fill="none" />
      <path d="M 18 -5 A 5 5 0 0 1 16.5 -0.5" stroke-width="1" stroke="#da3f1f" stroke-linecap="round" fill="none" />
    </g>


    <g transform="translate(-30, 5) scale(-1, 1)">
      <g transform="translate(16, -3)">
        <g transform="translate(11, 8)">
          <path d="M 0 0 L 3 -1 Q 7 4 7 8 Q 7 11 5.5 9 Q 4 4 0 0 Z" fill="#f04e23" />
        </g>
        <path d="M 0 0 L 12 8" stroke-width="5" stroke="#f04e23" stroke-linecap="round" fill="none" />
        <path d="M 14 7 A 2 2 0 0 1 12 10" stroke-width="1" stroke="#da3f1f" stroke-linecap="round" fill="none" />
      </g>
      
      <path d="M 0 0 L 16 -3" stroke-width="6" stroke="#f04e23" stroke-linecap="round" fill="none" />
      <path d="M 18 -5 A 5 5 0 0 1 16.5 -0.5" stroke-width="1" stroke="#da3f1f" stroke-linecap="round" fill="none" />
    </g>


    <g transform="translate(-25, 10) rotate(-10) scale(-0.8,0.8)">
      <g transform="translate(16, -3)">
        <g transform="translate(11, 8)">
          <path d="M 0 0 L 3 -1 Q 7 4 7 8 Q 7 11 5.5 9 Q 4 4 0 0 Z" fill="#f04e23" />
        </g>
        <path d="M 0 0 L 12 8" stroke-width="5" stroke="#f04e23" stroke-linecap="round" fill="none" />
        <path d="M 14 7 A 2 2 0 0 1 12 10" stroke-width="1" stroke="#da3f1f" stroke-linecap="round" fill="none" />
      </g>
      
      <path d="M 0 0 L 16 -3" stroke-width="6" stroke="#f04e23" stroke-linecap="round" fill="none" />
      <path d="M 18 -5 A 5 5 0 0 1 16.5 -0.5" stroke-width="1" stroke="#da3f1f" stroke-linecap="round" fill="none" />
    </g>

    <g transform="translate(-20, 15) rotate(-20) scale(-0.6, 0.6)">
      <g transform="translate(16, -3)">
        <g transform="translate(11, 8)">
          <path d="M 0 0 L 3 -1 Q 7 4 7 8 Q 7 11 5.5 9 Q 4 4 0 0 Z" fill="#f04e23" />
        </g>
        <path d="M 0 0 L 12 8" stroke-width="5" stroke="#f04e23" stroke-linecap="round" fill="none" />
        <path d="M 14 7 A 2 2 0 0 1 12 10" stroke-width="1" stroke="#da3f1f" stroke-linecap="round" fill="none" />
      </g>
      
      <path d="M 0 0 L 16 -3" stroke-width="6" stroke="#f04e23" stroke-linecap="round" fill="none" />
      <path d="M 18 -5 A 5 5 0 0 1 16.5 -0.5" stroke-width="1" stroke="#da3f1f" stroke-linecap="round" fill="none" />
    </g>

  <g id="body">
      <g id="eye-left" transform="translate(-15, -30)">
        <path d="M 0 0 L 3 20" stroke="#f04e23" stroke-width="4" fill="none" />
        <circle cx="0" cy="0" fill="#fdf6e3" r="9" />
        <circle cx="0" cy="0" fill="black" r="3.5"/>
      </g>

      <g id="eye-right" transform="translate(15, -30)">
        <path d="M 0 0 L -3 20" stroke="#f04e23" stroke-width="4" fill="none" />
        <circle cx="0" cy="0" fill="#fdf6e3" r="9" />
        <circle cx="0" cy="0" fill="black" r="3.5"/>
      </g>
   
      <g id="eye-right" transform="translate(15, -30)">
        <path d="M 0 0 L -3 20" stroke="#f04e23" stroke-width="4" fill="none" />
        <circle cx="0" cy="0" fill="#fdf6e3" r="9" />
        <circle cx="0" cy="0" fill="black" r="3.5"/>
      </g>

      <ellipse cx="0" cy="0" fill="#f04e23" rx="35" ry="20" />
      <ellipse cx="0" cy="10" fill="#f5c47885" rx="28" ry="10" />
      <path d="M -10 -8 A 15 15 0 0 0 10 -8" stroke="#c4371b" stroke-width="2" stroke-linecap="round" fill="none" />

      <path d="M -31.5 -8.5 A 10 10 0 0 0 -33.5 -4.5" stroke-width="2" stroke="#da3f1f" stroke-linecap="square" fill="none" />
      <path d="M 31.5 -8.5 A 10 10 0 0 1 33.5 -4.5" stroke-width="2" stroke="#da3f1f" stroke-linecap="square" fill="none" />
      <path d="M -35 2 A 20 20 0 0 0 -34 6" stroke-width="2" stroke="#da3f1f" stroke-linecap="square" fill="none" />
      <path d="M 35 2 A 20 20 0 0 1 34 6" stroke-width="2" stroke="#da3f1f" stroke-linecap="square" fill="none" />
    </g>

  </g>
</svg>
