<?xml version="1.0" encoding="UTF-8" standalone="no"?>
<!-- Created with Inkscape (http://www.inkscape.org/) -->
<svg xmlns:inkscape="http://www.inkscape.org/namespaces/inkscape" xmlns:rdf="http://www.w3.org/1999/02/22-rdf-syntax-ns#" xmlns="http://www.w3.org/2000/svg" xmlns:xlink="http://www.w3.org/1999/xlink" xmlns:ns1="http://sozi.baierouge.fr" xmlns:cc="http://creativecommons.org/ns#" xmlns:sodipodi="http://sodipodi.sourceforge.net/DTD/sodipodi-0.dtd" xmlns:dc="http://purl.org/dc/elements/1.1/" id="svg2" xml:space="preserve" viewBox="0 0 89.794 44.59" version="1.1" inkscape:version="0.91 r13725">
  <g id="g10" transform="matrix(1.25 0 0 -1.25 0 44.59)">
    <g id="g12">
      <path id="path14" style="fill-rule:evenodd;fill:#635b52" d="m70.715 21.512c0.269-0.371 0.535-0.918 0.801-1.641 0.214-0.613 0.32-0.973 0.32-1.078 0-0.402-0.121-1.867-0.359-4.402-0.321-3.118-0.629-5.36-0.922-6.719-0.16-0.774-0.637-1.426-1.438-1.961-0.668-0.453-1.773-0.934-3.32-1.438-0.293 0.239-0.813 0.957-1.563 2.16-0.613 0.958-1.066 1.719-1.359 2.278l-0.398 0.683-1.161 1.516-0.359 0.32c-0.508 0.453-0.961 0.707-1.359 0.762-0.375-0.32-0.856-1.375-1.442-3.16-0.586-1.68-1.105-3.535-1.558-5.559l-0.481-1.64-11.801-1.2c0.586 0.344 1.254 0.637 2 0.879 0.481 0.614 0.719 2.641 0.719 6.082l-0.078 2.278c0.023 0.347 0.145 0.906 0.359 1.679l-0.039-1.238c0.106-1.094 0.321-2.652 0.641-4.68 0.344-2.347 0.598-3.656 0.758-3.921 0.402 0.027 0.679 0.148 0.84 0.359 0.242 0.586 0.546 1.199 0.922 1.84 0.265 0.48 0.398 0.789 0.398 0.922-0.508 1.304-0.785 2.039-0.84 2.199 1.332-0.426 2.399-0.641 3.199-0.641 0.586 0 1.11 0.133 1.563 0.403 0.051-0.137 0.09-0.203 0.117-0.203 0.027-0.051 0.043-0.239 0.043-0.559s-0.027-0.574-0.082-0.762c1.066 1.789 1.734 3.028 2 3.723 0.48 1.359 1.879 4.265 4.199 8.719 0.481-0.719 1.281-2.321 2.403-4.801 0.48-1.067 1.25-1.598 2.32-1.598 1.465 0 2.398 0.692 2.797 2.078 0.535 2.719 1.242 5.387 2.121 8l0.039 0.321zm-15.797-6.641c-0.137 0.027-0.574 0.242-1.32 0.641-0.746 0.398-1.203 0.668-1.364 0.8l-0.277 1.039c0.961 0.348 1.945 0.602 2.961 0.762h3.238l0.078-2.68c0-0.347-0.039-0.617-0.117-0.8-0.027-0.055-0.133-0.188-0.32-0.403l-2.879 0.641zm-9 4.48c0.238-0.347 1.238-2.359 3-6.039l-1.281 0.641c-0.215 0-0.387 0.145-0.52 0.441-0.16 0.289-0.242 0.653-0.242 1.079-0.078 0.16-0.266 0.425-0.559 0.8l-0.441 0.598-1.719 1.879-1.039 1.121c-0.75 0.535-1.414 0.973-2 1.32-0.801 0.481-1.359 0.828-1.683 1.039l0.363 0.043 0.238 0.039c1.625 0 3.016-0.293 4.16-0.879 1.149-0.562 1.723-1.253 1.723-2.082zm-30.203 2.68-0.438 0.039c0 0.668 0.239 1.227 0.719 1.68 0.453 0.48 1 0.723 1.641 0.723l0.078 0.039-0.637-1.36c-0.43-0.508-0.883-0.879-1.363-1.121z" inkscape:connector-curvature="0"/>
      <path id="path16" style="fill-rule:evenodd;fill:#898074" d="m70.715 21.512-0.039-0.321c-0.668-0.293-1.133-0.894-1.399-1.8 0-0.051-0.16-0.973-0.48-2.758-0.453-2.586-1.762-4.188-3.922-4.801-0.133 0.215-0.281 0.707-0.441 1.48-0.133 0.719-0.2 1.293-0.2 1.719 0 1.895 0.508 3.426 1.52 4.602 1.203 1.414 1.922 2.652 2.16 3.718 0.109-0.054 0.547-0.332 1.32-0.839 0.801-0.508 1.297-0.84 1.481-1zm-23.438-11.399 0.039 1.238c-0.214-0.773-0.332-1.332-0.359-1.679-0.961-1.465-2.375-2.508-4.238-3.121-0.801-0.266-2.414-0.586-4.844-0.957-1.813-0.27-3.039-0.684-3.68-1.243-0.933-0.773-1.211-2.078-0.84-3.918l-0.878 0.161c-0.879 0.132-2.52 0.625-4.922 1.48-1.946 0.664-3.703 1.32-5.278 1.957 2 0.695 5.024 1.094 9.078 1.203 3.016 0.078 5.215 0.813 6.602 2.199 0.133 0.106 0.906 0.52 2.32 1.239 0.985 0.508 1.532 1.215 1.641 2.121 0.211 1.547 0.852 2.773 1.918 3.68 1.172 0.96 1.852 1.734 2.039 2.32v0.078l0.441-0.598c0.293-0.375 0.481-0.64 0.559-0.8 0-0.426 0.082-0.786 0.242-1.079 0.133-0.296 0.305-0.441 0.52-0.441 0.16-0.48 0.238-1 0.238-1.559 0-0.828-0.199-1.589-0.598-2.281zm9.321-6.84c1.199 0 2.226 0.774 3.078 2.321 0.855 1.57 1.281 3.449 1.281 5.636l0.359-0.32c0-0.078-0.132-1.211-0.398-3.398-0.27-2.375-0.414-4.051-0.441-5.039-1.653-0.403-3.106-0.68-4.36-0.84l0.481 1.64zm6.277 5.438c0.027-0.184 0.563-1.824 1.602-4.918l-0.442-0.199-1.277-0.442c-0.082 3.039-0.176 5.121-0.281 6.242l0.398-0.683zm-2.48 18.64 4.921-1.64c-0.347-0.32-0.359-0.641-0.039-0.961 0.211-0.211 0.68-0.492 1.399-0.84-0.668 0.16-1.172 0.281-1.52 0.363-0.613 0.133-1.078 0.2-1.398 0.2-0.641 0-1.242-0.293-1.801-0.879-0.535-0.59-1.094-0.883-1.68-0.883-0.507 0-0.949 0.148-1.32 0.441-0.48 0.426-0.906 0.785-1.281 1.078-1.602 1.121-4.36 1.883-8.281 2.282l-1.239 0.039c0.266-0.184 1.094-0.641 2.481-1.36 1.465-0.773 2.386-1.281 2.758-1.519 0.507-0.321 0.867-0.906 1.082-1.762 0.16-0.637 0.199-1.144 0.121-1.519l-0.321 0.64-0.121 0.199c-0.398 0.856-1.812 2.067-4.238 3.641-2.402 1.469-3.656 2.242-3.762 2.32 1.465-0.215 4.172-0.144 8.121 0.2l6.118-0.04zm-25.758-27.121c0.32 0.961 0.746 1.668 1.281 2.121 0.316 0.266 1.105 0.719 2.359 1.36-0.906-0.801-1.519-2.012-1.839-3.641l-1.801 0.16zm11.281 19.121c0 0.829-0.574 1.52-1.723 2.082-1.144 0.586-2.531 0.879-4.16 0.879l-0.597 0.2 0.359-0.239-0.359-0.043c0.32-0.211 0.878-0.558 1.679-1.039 0.586-0.347 1.254-0.785 2-1.32l1.039-1.121c-0.984 0.535-1.867 0.961-2.64 1.281-0.532 0.215-0.868 0.375-1 0.481l-0.118 0.082c-0.027 0.023-0.054 0.039-0.082 0.039l-0.121 0.117-0.636 0.48 1.078-0.199c-2.746 1.945-4.453 3.106-5.117 3.481 4.183-0.536 6.769-1.028 7.757-1.481 0.692-0.32 2.375-1.121 5.039-2.398l3.403-1.563-2.762 0.281c0.531-0.347 1.145-0.894 1.84-1.64 0.746-0.774 1.226-1.238 1.437-1.399 0.161-0.132 0.618-0.402 1.364-0.8 0.746-0.399 1.183-0.614 1.32-0.641-0.16-2.559-0.656-4.371-1.484-5.438-0.532-0.667-1.172-1-1.918-1-0.879 0-1.348 0.399-1.399 1.2 0.078 1.172 0.145 2.144 0.199 2.918 0.188 3.175-1.281 5.441-4.398 6.8zm-12.203 2.2c-1.547 1.976-2.36 3-2.438 3.082-0.132 0.211-0.215 0.371-0.242 0.48-0.078 0.16-0.117 0.414-0.117 0.758l0.039 0.879c0.824-0.637 1.547-1.41 2.16-2.317 0.371-0.535 0.985-1.441 1.84-2.722 0.824-1.414 1.332-2.371 1.52-2.879 0.16-0.399 0.238-0.895 0.238-1.481 0-0.32-0.012-0.492-0.039-0.519-0.082 0.027-0.149 0.012-0.199-0.039l-0.403-0.402c-0.293-0.559-0.531-1.266-0.719-2.118-0.64-0.695-1.238-1.215-1.8-1.562-0.078 0.082 0.066 1.082 0.441 3 0.399 2.105 0.602 3.265 0.602 3.48 0 0.586-0.243 1.309-0.723 2.16l-0.16 0.2zm-20 2.16v-3.559l0.082-0.761c0.238 0.136 0.504 0.546 0.801 1.242 0.371 0.851 0.597 1.332 0.679 1.437l0.438-0.039c-0.106-1.332-0.332-2.32-0.68-2.961-0.371-0.691-0.918-1.039-1.64-1.039l-0.879 0.082-0.039 1.957c0 0.801 0.132 1.524 0.398 2.16 0.16 0.403 0.441 0.895 0.84 1.481zm-0.879-11.238c-1.547 0.21-2.426 0.293-2.641 0.238-1.093-0.348-1.746-1.692-1.961-4.039l-2.437 1.078c0.32 0.641 0.598 1.242 0.84 1.801 0.453 1.043 0.679 2.043 0.679 3l-0.039 0.882c0.664-0.695 1.145-1.148 1.438-1.363 0.402-0.293 0.84-0.437 1.32-0.437 0.375 0 1.043 0.293 2 0.879 1.067 0.668 1.75 1.039 2.043 1.121-0.348-1.067-0.762-2.121-1.242-3.16zm7.519-7.68-1 0.359c0.106 1.332 0.161 2.774 0.161 4.321 0 0.425-0.067 0.89-0.2 1.398-0.16 0.535-0.293 0.762-0.398 0.68l2 9.359 0.117-11.957c0-0.535-0.051-1.215-0.16-2.043-0.16-1.012-0.332-1.719-0.52-2.117zm20.922-4.641-1.121-0.082c0.266 2.188 0.399 3.656 0.399 4.403l0.242 0.039c0.027-0.188 0.078-0.852 0.16-2 0.078-1.039 0.188-1.829 0.32-2.36z" inkscape:connector-curvature="0"/>
      <path id="path18" style="fill-rule:evenodd;fill:#7c7367" d="m70.676 21.191c-0.879-2.613-1.586-5.281-2.117-8-0.403-1.386-1.336-2.082-2.801-2.082-1.067 0-1.84 0.535-2.32 1.602-1.122 2.48-1.918 4.082-2.403 4.801-2.32-4.454-3.719-7.36-4.199-8.719-0.266-0.695-0.934-1.934-2-3.723 0.055 0.188 0.082 0.442 0.082 0.762s-0.016 0.508-0.043 0.559c-0.023 0-0.066 0.066-0.117 0.203-0.453-0.27-0.973-0.403-1.563-0.403-0.797 0-1.863 0.215-3.199 0.641 0.055-0.16 0.336-0.895 0.84-2.199 0-0.133-0.133-0.442-0.398-0.922-0.376-0.641-0.68-1.25-0.918-1.84-0.161-0.211-0.442-0.332-0.844-0.359-0.156 0.265-0.414 1.574-0.758 3.921-0.32 2.024-0.535 3.586-0.641 4.68 0.399 0.692 0.602 1.453 0.602 2.281 0 0.559-0.082 1.079-0.242 1.559l1.281-0.641c-1.762 3.68-2.762 5.692-3 6.039 3.117-1.359 4.586-3.625 4.398-6.8-0.05-0.774-0.117-1.746-0.199-2.918 0.055-0.801 0.52-1.2 1.403-1.2 0.746 0 1.382 0.333 1.918 1 0.824 1.067 1.32 2.879 1.48 5.438l2.879-0.637c0.187 0.211 0.293 0.344 0.32 0.399 0.082 0.187 0.121 0.453 0.121 0.8l-0.082 2.68h-3.238c-1.016-0.16-2-0.414-2.961-0.762l0.281-1.039c-0.215 0.161-0.695 0.625-1.441 1.399-0.692 0.75-1.309 1.297-1.84 1.64l2.762-0.277c1.011-0.16 1.746-0.043 2.199 0.359 0.266 0.211 0.492 0.532 0.68 0.961 0.078 0.372 0.039 0.879-0.121 1.52-0.215 0.852-0.575 1.437-1.079 1.758-0.375 0.242-1.293 0.746-2.761 1.519-1.387 0.723-2.215 1.176-2.481 1.36l1.242-0.039c3.918-0.399 6.68-1.161 8.278-2.278 0.375-0.297 0.801-0.656 1.281-1.082 0.375-0.293 0.813-0.441 1.32-0.441 0.586 0 1.149 0.297 1.68 0.883 0.563 0.586 1.16 0.879 1.801 0.879 0.32 0 0.785-0.067 1.398-0.2 0.348-0.082 0.856-0.199 1.52-0.359l1.242-0.563c-0.242-1.066-0.961-2.304-2.16-3.718-1.012-1.172-1.52-2.707-1.52-4.602 0-0.426 0.067-1 0.2-1.719 0.16-0.773 0.308-1.265 0.441-1.48 2.16 0.613 3.465 2.215 3.918 4.801 0.32 1.785 0.48 2.707 0.48 2.761 0.266 0.903 0.735 1.504 1.399 1.797zm-26.36-20.758-3.039-0.281c-0.132 0.531-0.242 1.321-0.32 2.36-0.082 1.148-0.133 1.812-0.16 2l-0.242-0.039c-0.934-0.266-1.692-0.52-2.278-0.762-1.254-0.641-2.043-1.094-2.359-1.36-0.535-0.453-0.961-1.16-1.281-2.121l-1.282 0.203c-0.371 1.84-0.093 3.145 0.84 3.918 0.641 0.559 1.867 0.973 3.68 1.243 2.43 0.371 4.043 0.691 4.844 0.957 1.863 0.613 3.277 1.652 4.238 3.121l0.078-2.281c0-3.442-0.238-5.465-0.719-6.083-0.746-0.238-1.414-0.531-2-0.875zm16.641 10.797c0-2.183-0.426-4.066-1.281-5.636-0.852-1.551-1.879-2.321-3.082-2.321 0.453 2.024 0.976 3.879 1.562 5.559 0.586 1.785 1.067 2.84 1.438 3.16 0.402-0.055 0.855-0.309 1.363-0.762zm4.039-7.277-0.519-0.16c-1.039 3.09-1.575 4.73-1.602 4.918 0.293-0.559 0.75-1.32 1.359-2.281 0.75-1.2 1.27-1.918 1.563-2.161l-0.801-0.316zm-49.719 18.117c-0.082-0.105-0.308-0.586-0.679-1.437-0.297-0.696-0.563-1.106-0.801-1.242l-0.082 0.761v3.598l0.762 0.723c0.984 0.585 2.734 1.132 5.238 1.64-0.453-0.43-0.918-0.828-1.399-1.203-0.398-0.266-0.625-0.41-0.679-0.437-0.641 0-1.188-0.243-1.641-0.723-0.48-0.453-0.719-1.012-0.719-1.68zm-7.043-13.398c0.215 2.347 0.868 3.691 1.961 4.039 0.215 0.055 1.094-0.028 2.641-0.238 0.242-0.934-0.227-2.563-1.398-4.879-1.043 0.316-2.11 0.679-3.204 1.078zm11.121-3.52-1.679 0.641c-0.133 2.32 0.281 4.238 1.242 5.758 0.105 0.082 0.238-0.145 0.398-0.68 0.133-0.508 0.2-0.973 0.2-1.398 0-1.547-0.055-2.989-0.161-4.321z" inkscape:connector-curvature="0"/>
      <path id="path20" style="fill-rule:evenodd;fill:#b3aa9e" d="m64.477 3.793 0.519 0.156-0.961-0.355 0.442 0.199zm-28.039 18-1.481-0.082c-0.855 1.281-1.469 2.187-1.84 2.722-0.613 0.907-1.336 1.68-2.16 2.317l-0.039-0.879c0-0.344 0.039-0.598 0.117-0.758 0.027-0.109 0.11-0.269 0.242-0.48l-0.48 0.398 1.598-3.437c-1.786 0-3.426-0.043-4.918-0.121-1.176-0.055-1.895-0.082-2.161-0.082-0.961 0-2.039 0.187-3.238 0.562-2.508 0.797-3.777 1.199-3.801 1.199l0.957-0.679c0.055-0.028 0.254-0.122 0.602-0.282-1.227 0.481-2.145 0.801-2.758 0.961l0.637 1.36-0.078-0.039c0.054 0.027 0.281 0.171 0.679 0.437 0.481 0.375 0.946 0.773 1.399 1.203-2.504-0.508-4.25-1.055-5.238-1.64l-0.762-0.723c-0.985-0.051-2.067 0.269-3.238 0.961-1.016 0.722-1.559 1.105-1.641 1.16 4.508 0 8.266 0.254 11.281 0.762-1.066 0.183-1.867 0.277-2.402 0.277-2.531-0.293-4.36-0.437-5.481-0.437-1.918-0.028-3.492 0.64-4.718 2 2.402 1.574 5.066 3.066 8 4.48 3.785 1.813 6.601 2.719 8.441 2.719 2.559 0 7.453-0.707 14.68-2.121 7.308-1.438 11.801-2.586 13.48-3.438l6.84-2.281 1.438-0.481-6.118 0.04 4.68 0.441c-0.855 0.187-3.012 0.398-6.48 0.641-3.762 0.265-6.922 0.398-9.481 0.398-0.613 0-1.238-0.121-1.879-0.359l0.199-0.239c0.879-0.32 1.481-0.507 1.801-0.562 0.317-0.078 1.332-0.25 3.039-0.52 0.106-0.078 1.36-0.851 3.762-2.32 2.426-1.574 3.84-2.785 4.238-3.641-3.359 1.227-6.215 2.243-8.558 3.043-4.43 1.543-7.707 2.465-9.84 2.758l-0.922-0.121 0.359-0.117c0.934-0.402 2.387-1.055 4.36-1.961 2.507-1.066 6.215-2.426 11.121-4.082l-2.36-0.117c-2.668 1.277-4.347 2.078-5.039 2.398-0.988 0.453-3.574 0.945-7.761 1.481-0.293 0.105-0.653 0.148-1.082 0.121-0.372-0.055-0.598-0.082-0.68-0.082l-0.039-0.598c0-0.16 0.226-0.469 0.68-0.922 0.589-0.558 1.269-0.973 2.043-1.238zm3-0.563h0.117l0.64-0.48c-0.265 0.187-0.519 0.348-0.757 0.48zm-0.403 10.762-0.801-0.039c0.055-0.082 0.161-0.254 0.321-0.52 0.293-0.242 0.828-0.363 1.601-0.363 1.094 0 2.774 0.215 5.039 0.641-3.574 0.187-5.625 0.281-6.16 0.281zm-5.199-10.68-0.121 0.239 0.16-0.2-0.039-0.039zm-11.359-0.121c1.281-0.425 2.414-0.707 3.398-0.84l-1.16-0.078c-0.797 0.344-1.547 0.653-2.238 0.918zm-3.122-16.039 1-0.359 0.36-0.16c-0.559 0.215-1.559 0.558-3 1.039-1.387 0.48-2.438 0.84-3.16 1.082l3.121-0.961 1.679-0.641zm20.442 17.121-0.359 0.239 0.597-0.2-0.238-0.039zm-6.442-21.84 1.282-0.203 1.801-0.16 0.757-0.039c-1.652 0-3.226 0.188-4.718 0.563l0.878-0.161zm6.801-0.363 1.121 0.082 3.039 0.281c-1.254-0.187-2.64-0.308-4.16-0.363zm-18.16 28.723-0.519-0.762c0.585-0.293 1.558-0.305 2.918-0.039l-2.399 0.801zm-3.762 2.398c-0.636 0.403-1.172 0.414-1.597 0.039l0.199-0.039h1.398zm7.282-0.16c1.679 0 2.988 0.133 3.922 0.402l-0.243 0.797c-3.039 0.161-5.027-0.011-5.961-0.519l0.121-0.199c0.083-0.079 0.215-0.188 0.403-0.321l1.758-0.16z" inkscape:connector-curvature="0"/>
      <path id="path22" style="fill-rule:evenodd;fill:#d2c8ba" d="m54.277 21.031-0.043-0.719h-1.918c-0.347 0.055-0.718 0.149-1.121 0.282l-0.519 0.156c-4.906 1.656-8.614 3.016-11.117 4.082-1.977 0.906-3.43 1.559-4.364 1.961l-0.359 0.117 0.922 0.121c2.133-0.293 5.414-1.215 9.84-2.758 2.347-0.8 5.199-1.816 8.558-3.043l0.121-0.199zm0 6.36c-3.949-0.344-6.652-0.415-8.121-0.2-1.707 0.266-2.718 0.442-3.039 0.52-0.32 0.055-0.922 0.242-1.801 0.562l-0.199 0.239c0.641 0.238 1.266 0.359 1.879 0.359 2.563 0 5.723-0.133 9.481-0.398 3.468-0.243 5.628-0.454 6.48-0.641l-4.68-0.441zm-15.242 4.601c0.535 0 2.586-0.094 6.16-0.281-2.265-0.426-3.945-0.641-5.039-0.641-0.773 0-1.308 0.121-1.601 0.363-0.16 0.266-0.266 0.438-0.321 0.52l0.801 0.039zm0.403-10.762c-0.856 0.563-1.376 0.762-1.563 0.602-0.156-0.133-0.293-0.215-0.398-0.238-0.133 0-0.254 0.023-0.36 0.078l-0.679 0.121c-0.774 0.265-1.454 0.68-2.043 1.238-0.454 0.453-0.68 0.762-0.68 0.922l0.043 0.598c0.078 0 0.304 0.027 0.68 0.082 0.425 0.027 0.785-0.016 1.078-0.121 0.668-0.371 2.375-1.536 5.121-3.481l-1.082 0.199h-0.117zm-4.083-6.957c0.161 0.16 0.321 0.465 0.481 0.918 0.133 0.426 0.215 0.828 0.242 1.2l0.399 0.402c0.507-2.055 0.453-3.735-0.161-5.043-0.613-1.332-1.679-2-3.199-2-0.293 0-0.508 0.016-0.64 0.043-0.133 0.051-0.239 0.078-0.321 0.078l-0.238 0.922c0.078 0.453 0.238 0.785 0.48 1 0.184 0.156 0.571 0.465 1.161 0.918 0.558 0.347 1.156 0.867 1.796 1.562zm-4.078 10.36c0.078-0.082 0.891-1.106 2.438-3.082l0.121-0.239c0.105-0.375 0.148-0.718 0.121-1.039-2.055-0.347-3.469-0.535-4.242-0.562l-1.481 0.082c-0.531-0.828-1.293-2.094-2.277-3.801-1.387-2.348-2.082-3.652-2.082-3.922 0-0.531-0.094-0.719-0.277-0.558l-0.364 0.121c-0.238 0.453-0.476 0.945-0.718 1.48-0.481 1.067-0.719 2.184-0.719 3.36 0 1.332 0.293 2.238 0.879 2.718 0.347 0.266 1.027 0.625 2.039 1.082l1.16 0.078c-0.984 0.133-2.117 0.415-3.398 0.84-0.293 0.106-0.586 0.215-0.879 0.321-0.774 0.32-1.364 0.546-1.762 0.679-0.348 0.16-0.547 0.254-0.602 0.282l-0.957 0.679c0.024 0 1.293-0.402 3.801-1.199 1.199-0.375 2.277-0.562 3.238-0.562 0.266 0 0.985 0.027 2.161 0.082 1.492 0.078 3.132 0.121 4.918 0.121l-1.598 3.437 0.48-0.398zm-25.761 2.117-0.039 0.043 2.039 1.68c1.226-1.36 2.8-2.028 4.718-2 1.121 0 2.95 0.144 5.481 0.437 0.535 0 1.336-0.094 2.402-0.277-3.015-0.508-6.773-0.762-11.281-0.762-0.133 0-0.68 0.133-1.641 0.402-0.933 0.239-1.492 0.399-1.679 0.477zm-3.239-15.039c-2.32 0.883-2.867 3.121-1.64 6.722 0.453 1.333 1.531 3.493 3.238 6.477l0.242 0.32c1.012-0.078 1.813-0.32 2.399-0.718 0.32-0.215 0.562-0.442 0.718-0.68-0.211-0.668-0.652-1.508-1.316-2.52-0.773-1.175-1.414-2.359-1.922-3.562-0.16-0.371-0.453-1.387-0.879-3.039-0.426-1.653-0.707-2.653-0.84-3zm23.239 19.32-1.758 0.16c-0.188 0.133-0.32 0.242-0.403 0.321l-0.121 0.199c0.934 0.508 2.922 0.68 5.961 0.519l0.243-0.797c-0.934-0.269-2.243-0.402-3.922-0.402zm-7.282 0.16h-1.398l-0.199 0.039c0.425 0.375 0.961 0.364 1.597-0.039zm3.762-2.398 2.399-0.801c-1.36-0.266-2.333-0.254-2.918 0.039l0.519 0.762zm-15.16-9.52c-0.027 0.024-0.051 0.16-0.078 0.399 0.265 0.347 0.437 0.719 0.519 1.121 0.161 0.348 0.707 0.785 1.641 1.32l-0.043-0.762-0.117-0.64c-0.137-1.067-0.563-1.598-1.281-1.598-0.348 0-0.559 0.051-0.641 0.16zm24.801-2.043c-0.16-0.16-0.348-0.238-0.559-0.238-0.215 0-0.402 0.078-0.562 0.238-0.161 0.161-0.239 0.364-0.239 0.602s0.078 0.441 0.239 0.601c0.16 0.161 0.347 0.239 0.562 0.239 0.211 0 0.399-0.078 0.559-0.239 0.16-0.16 0.238-0.363 0.238-0.601s-0.078-0.441-0.238-0.602zm-21.84-0.757-0.641-0.082c-0.695 0.054-1.265 0.16-1.718 0.32l0.757 0.801c0.668 0.398 1.266 0.695 1.801 0.879 0-1.2-0.066-1.84-0.199-1.918z" inkscape:connector-curvature="0"/>
      <path id="path24" style="fill-rule:evenodd;fill:#9b9286" d="m62.477 9.391c0.105-1.118 0.199-3.2 0.281-6.239l-2.281-0.679c0.027 0.984 0.171 2.664 0.441 5.039 0.266 2.187 0.398 3.32 0.398 3.398l1.161-1.519zm-10.762 9.679-3.399 1.563 2.36 0.117 0.519-0.156c0.399-0.137 0.774-0.227 1.121-0.282h1.918l0.043 0.719 0.321-0.64c-0.188-0.426-0.414-0.747-0.68-0.958-0.457-0.402-1.188-0.523-2.203-0.363zm-12.277 2.16c0.238-0.132 0.492-0.293 0.757-0.48l0.121-0.117c0.028 0 0.051-0.016 0.079-0.039l0.121-0.082c0.132-0.106 0.468-0.266 1-0.481 0.773-0.32 1.652-0.746 2.64-1.281l1.719-1.879v-0.078c-0.187-0.586-0.867-1.36-2.039-2.32-1.066-0.907-1.707-2.133-1.918-3.68-0.109-0.91-0.656-1.613-1.641-2.121-1.414-0.719-2.187-1.133-2.32-1.239-1.387-1.386-3.586-2.121-6.602-2.203-4.054-0.105-7.078-0.504-9.078-1.199l-1.082 0.402c-0.027 0.024-0.183 0.09-0.48 0.2l-0.36 0.16c0.188 0.398 0.36 1.105 0.52 2.117 0.109 0.828 0.16 1.508 0.16 2.039l-0.117 11.961-2-9.359c-0.961-1.52-1.375-3.442-1.242-5.758l-3.121 0.957-3.117 0.844c1.171 2.316 1.64 3.945 1.398 4.879 0.48 1.039 0.894 2.093 1.242 3.16-0.297-0.082-0.976-0.453-2.043-1.121-0.957-0.586-1.625-0.879-2-0.879-0.48 0-0.918 0.144-1.32 0.437-0.293 0.215-0.774 0.668-1.438 1.363l0.039-0.882c0-0.957-0.226-1.957-0.679-3-0.242-0.559-0.52-1.16-0.84-1.801l-3.52 1.961c0.133 0.347 0.414 1.347 0.84 3 0.426 1.652 0.719 2.668 0.879 3.039 0.508 1.203 1.149 2.387 1.922 3.562 0.664 1.012 1.105 1.852 1.316 2.52-0.156 0.238-0.398 0.465-0.718 0.68-0.586 0.398-1.387 0.64-2.399 0.718l0.278 0.364 1.082 1.156h0.039c0.187-0.078 0.746-0.238 1.679-0.477 0.961-0.269 1.508-0.402 1.641-0.402 0.082-0.055 0.629-0.438 1.641-1.16 1.171-0.692 2.253-1.012 3.238-0.961v-0.039c-0.399-0.586-0.68-1.078-0.84-1.481-0.266-0.636-0.398-1.359-0.398-2.16l0.039-1.957 0.879-0.082c0.722 0 1.269 0.348 1.64 1.039 0.348 0.641 0.574 1.629 0.68 2.961 0.48 0.242 0.933 0.613 1.363 1.121 0.613-0.16 1.531-0.48 2.758-0.961 0.398-0.133 0.988-0.359 1.762-0.679 0.293-0.106 0.586-0.215 0.879-0.321 0.691-0.265 1.441-0.574 2.238-0.918-1.012-0.457-1.692-0.816-2.039-1.082-0.586-0.48-0.879-1.386-0.879-2.718 0-1.176 0.238-2.293 0.719-3.36 0.242-0.535 0.48-1.027 0.718-1.48l0.364-0.121c0.183-0.161 0.277 0.027 0.277 0.558 0 0.27 0.695 1.574 2.082 3.922 0.984 1.707 1.746 2.973 2.277 3.801l1.481-0.082c0.773 0.027 2.187 0.215 4.242 0.562 0.027 0.321-0.016 0.664-0.121 1.039l0.039 0.039c0.48-0.851 0.723-1.574 0.723-2.16 0-0.215-0.203-1.375-0.602-3.48-0.375-1.918-0.519-2.918-0.441-3-0.586-0.453-0.973-0.758-1.16-0.918-0.239-0.215-0.399-0.547-0.477-1l0.238-0.922c0.078 0 0.188-0.023 0.321-0.078 0.132-0.027 0.347-0.043 0.64-0.043 1.52 0 2.586 0.668 3.199 2 0.614 1.308 0.668 2.988 0.161 5.043 0.05 0.051 0.117 0.066 0.199 0.039 0.027 0.027 0.039 0.199 0.039 0.519 0 0.586-0.078 1.082-0.238 1.481-0.188 0.508-0.696 1.469-1.52 2.879l1.481 0.082 0.679-0.121c0.106-0.055 0.227-0.078 0.36-0.078 0.105 0.023 0.238 0.105 0.398 0.238 0.187 0.16 0.707-0.039 1.563-0.602zm1.117-16.757c0-0.747-0.133-2.215-0.399-4.403-1.094-0.078-2.082-0.09-2.961-0.039l-0.757 0.039c0.32 1.629 0.933 2.84 1.839 3.641 0.586 0.242 1.344 0.496 2.278 0.762zm-4.477 11.918c-0.027-0.372-0.109-0.774-0.242-1.2-0.16-0.453-0.32-0.758-0.481-0.918 0.188 0.852 0.426 1.559 0.723 2.118zm-4.441 0.839c0.16 0.161 0.238 0.364 0.238 0.602s-0.078 0.441-0.238 0.601c-0.16 0.161-0.348 0.239-0.559 0.239-0.215 0-0.402-0.078-0.562-0.239-0.161-0.16-0.239-0.363-0.239-0.601s0.078-0.441 0.239-0.602c0.16-0.16 0.347-0.238 0.562-0.238 0.211 0 0.399 0.078 0.559 0.238zm-24.801 2.043c0.082-0.109 0.293-0.16 0.641-0.16 0.718 0 1.144 0.531 1.281 1.598l0.117 0.64 0.043 0.762c-0.934-0.535-1.48-0.976-1.641-1.32-0.082-0.402-0.254-0.774-0.519-1.121 0.023-0.239 0.051-0.375 0.078-0.399zm2.961-2.8c0.133 0.078 0.199 0.718 0.199 1.918-0.535-0.184-1.133-0.481-1.801-0.879l-0.757-0.801c0.453-0.16 1.027-0.266 1.718-0.317l0.641 0.079z" inkscape:connector-curvature="0"/>
    </g>
  </g>
<metadata><rdf:RDF><cc:Work><dc:format>image/svg+xml</dc:format><dc:type rdf:resource="http://purl.org/dc/dcmitype/StillImage"/><cc:license rdf:resource="http://creativecommons.org/licenses/publicdomain/"/><dc:publisher><cc:Agent rdf:about="http://openclipart.org/"><dc:title>Openclipart</dc:title></cc:Agent></dc:publisher></cc:Work><cc:License rdf:about="http://creativecommons.org/licenses/publicdomain/"><cc:permits rdf:resource="http://creativecommons.org/ns#Reproduction"/><cc:permits rdf:resource="http://creativecommons.org/ns#Distribution"/><cc:permits rdf:resource="http://creativecommons.org/ns#DerivativeWorks"/></cc:License></rdf:RDF></metadata></svg>
